<svg xmlns="http://www.w3.org/2000/svg" xmlns:xlink="http://www.w3.org/1999/xlink" width="113.269" height="34.503" viewBox="0 0 113.269 34.503">
  <defs>
    <linearGradient id="linear-gradient" x1="0.359" y1="0.974" x2="0.66" y2="0.031" gradientUnits="objectBoundingBox">
      <stop offset="0" stop-color="#db43b8"/>
      <stop offset="0.85" stop-color="#fe62cb"/>
    </linearGradient>
    <linearGradient id="linear-gradient-2" x1="0.621" y1="0.983" x2="0.361" y2="0.02" gradientUnits="objectBoundingBox">
      <stop offset="0" stop-color="#be1687"/>
      <stop offset="0.8" stop-color="#db43b8"/>
    </linearGradient>
  </defs>
  <g id="Grupo_20450" data-name="Grupo 20450" transform="translate(-20.268 -75.713)">
    <path id="Caminho_9777" data-name="Caminho 9777" d="M73.7,82.3l-8.117-5.526a5.293,5.293,0,0,0-5.958,0l-10.432,7.1L37.556,76.53a5.3,5.3,0,0,0-5.652,0l-9.167,5.788a5.293,5.293,0,0,0-2.468,4.476V99.135a5.293,5.293,0,0,0,2.468,4.476L31.9,109.4a5.3,5.3,0,0,0,5.652,0l11.611-7.33,10.42,6.985a5.294,5.294,0,0,0,5.878.011l8.186-5.441a5.292,5.292,0,0,0,2.364-4.409V86.676A5.293,5.293,0,0,0,73.7,82.3Z" transform="translate(0 0)" fill="#fe62cb"/>
    <path id="Caminho_9778" data-name="Caminho 9778" d="M144.088,87.887h3.878v18.42h-4.2a.575.575,0,0,1-.485-.242c-2.828-4.04-5.656-8.079-8.483-12.2a.631.631,0,0,0-.322-.323v12.765H130.6V87.887h4.2a.575.575,0,0,1,.485.242l8.483,11.957a.624.624,0,0,0,.323.323Z" transform="translate(-31.961 -3.527)" fill="#1d1d1b"/>
    <path id="Caminho_9779" data-name="Caminho 9779" d="M118.767,87.887h4.363v18.42h-4.363Z" transform="translate(-28.534 -3.527)" fill="#1d1d1b"/>
    <path id="Caminho_9780" data-name="Caminho 9780" d="M173.124,97.786a4.254,4.254,0,0,0-2.1-1.212,1.36,1.36,0,0,1-.4-.161.3.3,0,0,1,.243-.081,2.85,2.85,0,0,0,1.535-.808,2.035,2.035,0,0,0,.727-1.616V91.081a3.092,3.092,0,0,0-2.019-2.989,9.754,9.754,0,0,0-1.455-.4,19.773,19.773,0,0,0-4.363-.162,7.868,7.868,0,0,0-2.747.485,3.13,3.13,0,0,0-2.181,3.151v2.828a2.025,2.025,0,0,0,.646,1.454,2.908,2.908,0,0,0,1.616.889c.081,0,.162.081.242.081l-.08.081-.243.08a5.071,5.071,0,0,0-2.181,1.293,2.016,2.016,0,0,0-.646,1.374c0,1.293,0,2.585.081,3.878a2.873,2.873,0,0,0,1.858,2.667,9.533,9.533,0,0,0,2.99.727,19.649,19.649,0,0,0,4.363,0,9.534,9.534,0,0,0,2.989-.727,2.98,2.98,0,0,0,1.858-2.747c.081-1.212,0-2.424.081-3.636A3.067,3.067,0,0,0,173.124,97.786Zm-8.645-6.543a1.117,1.117,0,0,1,.889-.97,4.675,4.675,0,0,1,2.586,0,1.31,1.31,0,0,1,.97,1.292v2.343a1.177,1.177,0,0,1-1.051,1.293,6.132,6.132,0,0,1-2.424,0,1.239,1.239,0,0,1-1.051-1.293V92.7h0a8.291,8.291,0,0,0,.081-1.454Zm4.928,11.391a.953.953,0,0,1-.97,1.05h-.08a11.909,11.909,0,0,1-3.393,0,.9.9,0,0,1-.889-1.05v-1.777h0v-1.7a.96.96,0,0,1,.808-.97l2.181-.242a7.125,7.125,0,0,1,1.293.161,1.068,1.068,0,0,1,.969,1.132c.081,1.131.081,2.262.081,3.393Z" transform="translate(-40.396 -3.408)" fill="#1d1d1b"/>
    <path id="Caminho_9781" data-name="Caminho 9781" d="M31.9,76.53a5.3,5.3,0,0,1,5.652,0l11.636,7.345h0l-10.57,9.049,10.57,9.13h0L37.556,109.4a5.3,5.3,0,0,1-5.652,0l-9.167-5.788a5.293,5.293,0,0,1-2.468-4.476V86.794a5.293,5.293,0,0,1,2.468-4.476Z" transform="translate(0 0)" fill="url(#linear-gradient)"/>
    <path id="Caminho_9782" data-name="Caminho 9782" d="M55.836,87.2v18.178L44.247,98.112a2.222,2.222,0,0,1,.016-3.775Z" transform="translate(-6.645 -3.329)" fill="#c42091"/>
    <path id="Caminho_9783" data-name="Caminho 9783" d="M71.363,109.112l-10.443-7,10.724-9.17L60.968,83.934h0l10.432-7.1a5.293,5.293,0,0,1,5.958,0l8.117,5.526a5.293,5.293,0,0,1,2.315,4.376V99.274a5.292,5.292,0,0,1-2.364,4.409l-8.186,5.441A5.294,5.294,0,0,1,71.363,109.112Z" transform="translate(-11.776 -0.059)" fill="url(#linear-gradient-2)"/>
    <path id="Caminho_9784" data-name="Caminho 9784" d="M60.987,105.382V87.2l11.045,7.16a2.222,2.222,0,0,1,.015,3.72Z" transform="translate(-11.796 -3.329)" fill="#fe62cb"/>
  </g>
</svg>
